<?xml version="1.0" standalone="no"?>
<!DOCTYPE svg PUBLIC "-//W3C//DTD SVG 20010904//EN"
 "http://www.w3.org/TR/2001/REC-SVG-20010904/DTD/svg10.dtd">
<svg version="1.0" xmlns="http://www.w3.org/2000/svg"
 width="260.000000pt" height="260.000000pt" viewBox="0 0 260.000000 260.000000"
 preserveAspectRatio="xMidYMid meet">
<metadata>
Created by potrace 1.14, written by Peter Selinger 2001-2017
</metadata>
<g transform="translate(0.000000,260.000000) scale(0.100000,-0.100000)"
fill="#000000" stroke="none">
<path d="M1256 2374 c-26 -24 -50 -44 -52 -44 -4 0 -39 -30 -108 -94 -82 -76
-349 -273 -500 -370 -31 -20 -56 -37 -56 -40 0 -18 262 -558 303 -624 13 -20
45 -86 72 -147 26 -60 63 -143 82 -183 18 -39 33 -74 33 -76 0 -3 16 -40 37
-83 20 -43 36 -86 35 -96 0 -10 17 -55 39 -100 21 -45 65 -147 97 -226 33 -80
63 -146 69 -148 6 -2 21 22 33 54 13 32 33 81 46 108 12 28 36 84 54 125 18
41 43 97 56 123 13 27 21 53 18 58 -5 9 50 136 161 374 23 50 57 124 75 165
18 41 54 113 81 160 55 99 139 273 139 289 0 6 4 11 9 11 5 0 13 10 17 23 4
12 18 45 31 72 14 28 31 67 38 87 13 36 13 39 -8 53 -12 9 -76 52 -142 96
-151 100 -380 279 -475 369 -22 21 -113 95 -126 103 -5 3 -32 -14 -58 -39z"/>
</g>
</svg>
